<svg style="display: none;">
  <symbol id="asteroid-1" viewBox="0 0 100 100">
    <polygon points="30,10 50,40 70,10 55,35 60,65 40,55 30,80 20,65 0,55 25,35" />
  </symbol>
  <symbol id="asteroid-2" viewBox="0 0 100 100">
    <polygon points="30,10 70,10 50,40 55,65 40,45 45,70 25,50 35,25 10,40 30,10" />
  </symbol>
  <symbol id="asteroid-3" viewBox="0 0 100 100">
    <polygon points="30,10 50,40 70,10 50,60 30,80 20,60 30,40 50,20 70,40 30,10" />
  </symbol>
  <symbol id="asteroid-4" viewBox="0 0 100 100">
    <polygon points="30,10 50,40 70,10 60,55 45,35 40,70 20,55 30,40 50,20 70,40 30,10" />
  </symbol>
  <symbol id="asteroid-5" viewBox="0 0 100 100">
    <polygon points="20,10 40,40 60,10 55,50 45,70 30,55 25,35 10,40 20,10" />
  </symbol>
</svg>